<svg xmlns="http://www.w3.org/2000/svg"
     viewBox="530 494 940 710">
    <defs>
        <style>
            .cls-4{fill:#81aad9;}   /* celeste */
            .cls-5{fill:#00408f;}   /* azul */
        </style>
    </defs>
    <!-- Parte superior celeste -->
    <path class="cls-4" d="M1295.29,732.35c.09-2.35.19-4.71.26-7.06,2-66.52,3.07-139.48-47.44-188.44C1166,457.32,952.4,556,938.27,560.75,924.14,556,710.5,457.32,628.44,536.85c-39.61,38.4-47.5,91.56-48.09,144.79C560.39,677,540.64,664,540.6,664,540.74,664.14,888.35,982.05,1295.29,732.35Z"/>
    <!-- Cuerpo principal y raíces -->
    <path class="cls-5" d="M580.52,716.76c.13,6.22.29,12.43.48,18.57,1.92,63.64,10.57,127.2,23.88,189.42,12.64,59.12,29.37,118.42,55.38,173.2,16.43,34.56,40.1,79.61,78.51,93.9a55.21,55.21,0,0,0,32.31,2.22c116.78-28.11,78.35-164.32,155.17-218.56-23.45-30.43-62.8-38.66-62.8-38.66,51.17,1.08,84.81,27.86,106.28,56.69,9.14,11,16,23.61,21.66,37.07a202.74,202.74,0,0,1,12.12,34.09c17.17,54.57,30.55,112.18,102,129.37a55.22,55.22,0,0,0,32.31-2.22c38.41-14.29,62.08-59.34,78.51-93.9,26-54.78,42.73-114.08,55.38-173.2a1100.52,1100.52,0,0,0,21.82-149.82c24.8-28.8,55.47-68.57,55.49-68.59S969.36,1105.83,580.52,716.76Z"/>
    <!-- Detalle superior derecho -->
    <path class="cls-5" d="M1346,598.3s115.21,15.88,98.33,138.21C1444.36,736.51,1516.15,585.17,1346,598.3Z"/>
</svg>
